<svg width="251" height="161" viewBox="0 0 251 161" fill="none" xmlns="http://www.w3.org/2000/svg">
<path opacity="0.3" d="M49.1936 15.4213C23.8786 25.2238 5.09362 50.0679 1.35788 80.1285C-1.76282 105.459 5.69347 133.446 49.5884 141.419C134.994 156.939 223.034 158.754 243.452 116.894C263.869 75.0336 235.927 8.00293 192.579 3.36363C158.183 -0.326546 98.6465 -3.7206 49.1936 15.4213Z" fill="white"/>
<path d="M157.522 9.56714H93.544C89.5309 9.56714 86.2776 12.8204 86.2776 16.8336V137.744C86.2776 141.757 89.5309 145.01 93.544 145.01H157.522C161.536 145.01 164.789 141.757 164.789 137.744V16.8336C164.789 12.8204 161.536 9.56714 157.522 9.56714Z" fill="#333333"/>
<path opacity="0.03" d="M125.533 140.872C128.674 140.872 131.22 138.326 131.22 135.185C131.22 132.044 128.674 129.498 125.533 129.498C122.392 129.498 119.846 132.044 119.846 135.185C119.846 138.326 122.392 140.872 125.533 140.872Z" fill="#333333"/>
<path d="M157.128 21.321H93.9314V126.78H157.128V21.321Z" fill="#EFEBFF"/>
<path opacity="0.03" d="M118.297 120.508C119.438 120.508 120.362 119.583 120.362 118.443C120.362 117.302 119.438 116.377 118.297 116.377C117.156 116.377 116.232 117.302 116.232 118.443C116.232 119.583 117.156 120.508 118.297 120.508Z" fill="#333333"/>
<path opacity="0.44" d="M125.533 120.508C126.674 120.508 127.599 119.583 127.599 118.443C127.599 117.302 126.674 116.377 125.533 116.377C124.393 116.377 123.468 117.302 123.468 118.443C123.468 119.583 124.393 120.508 125.533 120.508Z" fill="white"/>
<path opacity="0.03" d="M132.769 120.508C133.91 120.508 134.835 119.583 134.835 118.443C134.835 117.302 133.91 116.377 132.769 116.377C131.629 116.377 130.704 117.302 130.704 118.443C130.704 119.583 131.629 120.508 132.769 120.508Z" fill="#333333"/>
<path opacity="0.03" d="M148.699 32.9534H102.367V72.5051H148.699V32.9534Z" fill="#333333"/>
<path opacity="0.03" d="M134.873 80.1285H102.367V83.7504H134.873V80.1285Z" fill="#333333"/>
<path opacity="0.03" d="M148.699 80.1285H137.067V83.7504H148.699V80.1285Z" fill="#333333"/>
<path opacity="0.03" d="M117.553 91.2371H102.367V94.8589H117.553V91.2371Z" fill="#333333"/>
<path opacity="0.03" d="M148.699 91.2371H120.78V94.8589H148.699V91.2371Z" fill="#333333"/>
<path opacity="0.03" d="M137.454 102.353H102.367V105.975H137.454V102.353Z" fill="#333333"/>
<path d="M79.1555 21.321H15.9592V126.78H79.1555V21.321Z" fill="#EFEBFF"/>
<path opacity="0.44" d="M40.3251 120.508C41.4657 120.508 42.3903 119.583 42.3903 118.443C42.3903 117.302 41.4657 116.377 40.3251 116.377C39.1844 116.377 38.2598 117.302 38.2598 118.443C38.2598 119.583 39.1844 120.508 40.3251 120.508Z" fill="white"/>
<path opacity="0.03" d="M47.5611 120.508C48.7018 120.508 49.6264 119.583 49.6264 118.443C49.6264 117.302 48.7018 116.377 47.5611 116.377C46.4205 116.377 45.4958 117.302 45.4958 118.443C45.4958 119.583 46.4205 120.508 47.5611 120.508Z" fill="#333333"/>
<path opacity="0.03" d="M54.797 120.508C55.9376 120.508 56.8623 119.583 56.8623 118.443C56.8623 117.302 55.9376 116.377 54.797 116.377C53.6563 116.377 52.7317 117.302 52.7317 118.443C52.7317 119.583 53.6563 120.508 54.797 120.508Z" fill="#333333"/>
<path opacity="0.03" d="M70.727 32.9534H24.3948V72.5051H70.727V32.9534Z" fill="#333333"/>
<path opacity="0.03" d="M56.9002 80.1285H24.3948V83.7504H56.9002V80.1285Z" fill="#333333"/>
<path opacity="0.03" d="M70.7274 80.1285H59.095V83.7504H70.7274V80.1285Z" fill="#333333"/>
<path opacity="0.03" d="M39.5807 91.2371H24.3948V94.8589H39.5807V91.2371Z" fill="#333333"/>
<path opacity="0.03" d="M70.7272 91.2371H42.8079V94.8589H70.7272V91.2371Z" fill="#333333"/>
<path opacity="0.03" d="M59.4819 102.353H24.3948V105.975H59.4819V102.353Z" fill="#333333"/>
<path d="M235.1 21.321H171.903V126.78H235.1V21.321Z" fill="#EFEBFF"/>
<path opacity="0.03" d="M196.269 120.508C197.41 120.508 198.334 119.583 198.334 118.443C198.334 117.302 197.41 116.377 196.269 116.377C195.129 116.377 194.204 117.302 194.204 118.443C194.204 119.583 195.129 120.508 196.269 120.508Z" fill="#333333"/>
<path opacity="0.03" d="M203.505 120.508C204.646 120.508 205.571 119.583 205.571 118.443C205.571 117.302 204.646 116.377 203.505 116.377C202.365 116.377 201.44 117.302 201.44 118.443C201.44 119.583 202.365 120.508 203.505 120.508Z" fill="#333333"/>
<path opacity="0.44" d="M210.742 120.508C211.882 120.508 212.807 119.583 212.807 118.443C212.807 117.302 211.882 116.377 210.742 116.377C209.601 116.377 208.676 117.302 208.676 118.443C208.676 119.583 209.601 120.508 210.742 120.508Z" fill="white"/>
<path opacity="0.03" d="M226.671 32.9534H180.339V72.5051H226.671V32.9534Z" fill="#333333"/>
<path opacity="0.03" d="M212.845 80.1285H180.339V83.7504H212.845V80.1285Z" fill="#333333"/>
<path opacity="0.03" d="M226.671 80.1285H215.039V83.7504H226.671V80.1285Z" fill="#333333"/>
<path opacity="0.03" d="M195.525 91.2371H180.339V94.8589H195.525V91.2371Z" fill="#333333"/>
<path opacity="0.03" d="M226.679 91.2371H198.76V94.8589H226.679V91.2371Z" fill="#333333"/>
<path opacity="0.03" d="M215.426 102.353H180.339V105.975H215.426V102.353Z" fill="#333333"/>
<path opacity="0.1" d="M147.097 145.041C147.097 144.281 145.487 113.15 146.52 108.519C147.553 103.887 157.029 81.2447 154.531 78.6023C152.033 75.96 142.883 81.9736 142.883 81.9736C142.883 81.9736 144.554 54.7073 140.605 52.7635C136.657 50.8197 134.903 58.4354 134.903 58.4354L132.8 88.9363L122.382 144.896L147.097 145.041Z" fill="#333333"/>
<path d="M140.059 113.295C141.387 107.979 143.384 102.793 144.66 97.4252C145.503 93.8717 150.955 79.0199 152.481 74.6463C152.951 73.3024 153.354 71.6775 152.443 70.5841C152.135 70.2644 151.752 70.0272 151.329 69.8946C150.906 69.7619 150.456 69.7379 150.021 69.8248C149.143 70.008 148.333 70.4312 147.682 71.0473C146.163 72.3836 143.362 78.9971 141.311 78.9895C138.829 78.9895 139.998 72.1558 139.93 70.8423C139.649 65.1855 140.066 57.9342 137.857 52.6191C136.217 48.6708 132.147 49.2023 131.19 53.4696C130.233 57.7368 130.271 75.6182 130.271 75.6182C130.271 75.6182 114.387 72.8924 111.676 77.7367C108.965 82.581 113.544 113.355 113.544 113.355L140.059 113.295Z" fill="#F4A28C"/>
<path d="M141.995 160.5L141.706 111.594L112.025 105.079L100.074 160.5H141.995Z" fill="#633CFF"/>
<path opacity="0.1" d="M141.995 160.5L141.706 111.594L127.538 108.481L125.002 160.5H141.995Z" fill="#333333"/>
</svg>
